<?xml version="1.0"?>
<svg width="87.25" height="28" xmlns="http://www.w3.org/2000/svg" xmlns:svg="http://www.w3.org/2000/svg" xmlns:xlink="http://www.w3.org/1999/xlink" aria-label="GMAIL">
 <title>GMAIL</title>
 <defs>
  <symbol height="48px" id="svg_6" viewBox="0 0 48 48" width="48px" xmlns="http://www.w3.org/2000/svg">
   <path d="m45,16.2l-5,2.75l-5,4.75l0,16.3l7,0c1.66,0 3,-1.34 3,-3l0,-20.8z" fill="#4caf50" id="svg_4"/>
   <path d="m3,16.2l3.61,1.71l6.39,5.79l0,16.3l-7,0c-1.66,0 -3,-1.34 -3,-3l0,-20.8z" fill="#1e88e5" id="svg_8"/>
   <polygon fill="#e53935" id="svg_9" points="35,11.2 24,19.45 13,11.2 12,17 13,23.7 24,31.95 35,23.7 36,17"/>
   <path d="m3,12.3l0,3.9l10,7.5l0,-12.5l-3.12,-2.34c-0.75,-0.56 -1.65,-0.86 -2.58,-0.86l0,0c-2.38,0 -4.3,1.92 -4.3,4.3z" fill="#c62828" id="svg_10"/>
   <path d="m45,12.3l0,3.9l-10,7.5l0,-12.5l3.12,-2.34c0.75,-0.56 1.65,-0.86 2.58,-0.86l0,0c2.38,0 4.3,1.92 4.3,4.3z" fill="#fbc02d" id="svg_11"/>
  </symbol>
 </defs>
 <g class="layer">
  <title>Layer 1</title>
  <g id="svg_1">
   <rect fill="#F6F8FA" height="28" id="svg_2" width="87.25"/>
  </g>
  <g fill="#fff" font-family="Verdana,Geneva,DejaVu Sans,sans-serif" font-size="100" id="svg_3" text-anchor="middle">
   <text fill="#333" font-weight="bold" id="svg_5" textLength="432.5" transform="matrix(1 0 0 1 0 0) scale(0.1 0.1)" x="536.25" y="175">GMAIL</text>
   <use id="svg_7" transform="matrix(0.408238 0 0 0.408238 2.02041 22.0546)" x="13.79" xlink:href="#svg_6" y="-44.22"/>
  </g>
 </g>
</svg>