<?xml version="1.0"?>
<svg width="111" height="28" xmlns="http://www.w3.org/2000/svg" xmlns:svg="http://www.w3.org/2000/svg" xmlns:xlink="http://www.w3.org/1999/xlink" aria-label="MSEXCEL">
 <title>MS EXCEL</title>
 <defs>
  <symbol height="48px" id="svg_6" viewBox="0 0 48 48" width="48px" xmlns="http://www.w3.org/2000/svg">
   <path d="m29,6l-13.26,0c-0.96,0 -1.74,0.78 -1.74,1.74l0,7.26l15,0l0,-9z" fill="#169154" id="svg_4"/>
   <path d="m14,33.05l0,7.21c0,0.96 0.78,1.74 1.74,1.74l13.26,0l0,-8.95l-15,0z" fill="#18482a" id="svg_8"/>
   <path d="m14,15l15,0l0,9.01l-15,0l0,-9.01z" fill="#0c8045" id="svg_9"/>
   <path d="m14,24l15,0l0,9.05l-15,0l0,-9.05z" fill="#17472a" id="svg_10"/>
   <g id="svg_11">
    <path d="m42.26,6l-13.26,0l0,9l15,0l0,-7.26c0,-0.96 -0.78,-1.74 -1.74,-1.74z" fill="#29c27f" id="svg_12"/>
    <path d="m29,33.05l0,8.95l13.26,0c0.96,0 1.74,-0.78 1.74,-1.74l0,-7.21l-15,0z" fill="#27663f" id="svg_13"/>
    <path d="m29,15l15,0l0,9.01l-15,0l0,-9.01z" fill="#19ac65" id="svg_14"/>
    <path d="m29,24l15,0l0,9.05l-15,0l0,-9.05z" fill="#129652" id="svg_15"/>
   </g>
   <path d="m22.32,34l-16.64,0c-0.93,0 -1.68,-0.75 -1.68,-1.68l0,-16.64c0,-0.93 0.75,-1.68 1.68,-1.68l16.64,0c0.93,0 1.68,0.75 1.68,1.68l0,16.64c0,0.93 -0.75,1.68 -1.68,1.68z" fill="#0c7238" id="svg_16"/>
   <path d="m9.81,19l2.38,0l1.94,3.75l2.05,-3.75l2.22,0l-3.07,5l3.14,5l-2.35,0l-2.11,-3.93l-2.1,3.93l-2.38,0l3.19,-5.02l-2.91,-4.98z" fill="#fff" id="svg_17"/>
  </symbol>
 </defs>
 <g class="layer">
  <title>Layer 1</title>
  <g id="svg_1">
   <rect fill="#2B2D31" height="28" id="svg_2" width="111" x="0" y="0"/>
  </g>
  <g fill="#fff" font-family="Verdana,Geneva,DejaVu Sans,sans-serif" font-size="100" id="svg_3" text-anchor="middle">
   <text fill="#fff" font-weight="bold" id="svg_5" textLength="670" transform="matrix(0.1 0 0 0.1 0 0)" x="655" y="175">MS EXCEL</text>
   <use id="svg_7" transform="matrix(0.390981 0 0 0.390981 37.4087 37.2348)" x="-77.05" xlink:href="#svg_6" y="-83.26"/>
  </g>
 </g>
</svg>