<?xml version="1.0"?>
<svg width="88.25" height="28" xmlns="http://www.w3.org/2000/svg" xmlns:svg="http://www.w3.org/2000/svg" xmlns:xlink="http://www.w3.org/1999/xlink" aria-label="MYSQL">
 <title>MYSQL</title>
 <defs>
  <symbol height="64" id="svg_13" viewBox="0 0 25.6 25.6" width="64" xmlns="http://www.w3.org/2000/svg">
   <path d="m179.08,94.89c-3.57,-0.1 -6.34,0.26 -8.66,1.25c-0.67,0.27 -1.74,0.27 -1.83,1.11c0.36,0.36 0.4,0.94 0.71,1.43c0.54,0.89 1.48,2.1 2.32,2.72l2.86,2.05c1.74,1.07 3.7,1.7 5.4,2.77c0.98,0.62 1.96,1.43 2.94,2.1c0.5,0.35 0.81,0.93 1.43,1.16l0,-0.14c-0.31,-0.4 -0.4,-0.98 -0.71,-1.43l-1.34,-1.29c-1.3,-1.74 -2.9,-3.26 -4.64,-4.51c-1.43,-0.98 -4.55,-2.32 -5.13,-3.97l-0.09,-0.1c0.98,-0.1 2.14,-0.44 3.08,-0.71c1.52,-0.4 2.9,-0.31 4.46,-0.71l2.14,-0.63l0,-0.4c-0.8,-0.8 -1.38,-1.87 -2.23,-2.63c-2.27,-1.96 -4.77,-3.88 -7.36,-5.49c-1.39,-0.89 -3.17,-1.47 -4.64,-2.23c-0.54,-0.27 -1.43,-0.4 -1.74,-0.85c-0.81,-0.98 -1.25,-2.27 -1.83,-3.43l-3.66,-7.77c-0.8,-1.74 -1.29,-3.48 -2.28,-5.08c-4.59,-7.59 -9.59,-12.18 -17.26,-16.69c-1.65,-0.94 -3.62,-1.34 -5.7,-1.83l-3.35,-0.18c-0.71,-0.31 -1.43,-1.16 -2.05,-1.56c-2.54,-1.61 -9.1,-5.09 -10.98,-0.5c-1.2,2.9 1.79,5.75 2.8,7.23c0.76,1.02 1.74,2.18 2.28,3.34c0.3,0.76 0.4,1.57 0.71,2.37c0.71,1.96 1.38,4.15 2.32,5.98c0.5,0.94 1.03,1.92 1.65,2.77c0.36,0.5 0.98,0.71 1.12,1.51c-0.63,0.9 -0.67,2.23 -1.03,3.35c-1.61,5.04 -0.98,11.29 1.29,15c0.72,1.11 2.4,3.57 4.69,2.63c2.01,-0.8 1.56,-3.34 2.14,-5.58c0.13,-0.53 0.04,-0.89 0.31,-1.25l0,0.1l1.83,3.71c1.39,2.18 3.8,4.46 5.8,5.98c1.07,0.8 1.92,2.18 3.26,2.67l0,-0.13l-0.09,0c-0.27,-0.4 -0.67,-0.58 -1.03,-0.89c-0.8,-0.81 -1.69,-1.79 -2.32,-2.68c-1.87,-2.5 -3.52,-5.26 -4.99,-8.12c-0.72,-1.38 -1.34,-2.9 -1.92,-4.28c-0.27,-0.54 -0.27,-1.34 -0.72,-1.61c-0.67,0.98 -1.65,1.83 -2.14,3.04c-0.85,1.91 -0.93,4.28 -1.25,6.73c-0.18,0.05 -0.1,0 -0.18,0.1c-1.42,-0.35 -1.91,-1.83 -2.45,-3.08c-1.34,-3.16 -1.56,-8.25 -0.4,-11.91c0.31,-0.94 1.65,-3.88 1.12,-4.77c-0.27,-0.85 -1.16,-1.34 -1.66,-2.01c-0.58,-0.85 -1.2,-1.92 -1.6,-2.86c-1.07,-2.5 -1.61,-5.26 -2.77,-7.76c-0.53,-1.16 -1.47,-2.36 -2.23,-3.43c-0.85,-1.21 -1.78,-2.06 -2.45,-3.48c-0.23,-0.5 -0.54,-1.3 -0.18,-1.83c0.09,-0.36 0.27,-0.5 0.62,-0.58c0.58,-0.5 2.23,0.13 2.81,0.4c1.65,0.67 3.04,1.29 4.42,2.23c0.63,0.44 1.3,1.29 2.1,1.51l0.94,0c1.42,0.32 3.03,0.1 4.37,0.5c2.36,0.76 4.5,1.88 6.42,3.08c5.85,3.71 10.67,8.97 13.92,15.26c0.54,1.03 0.76,1.97 1.25,3.04c0.94,2.18 2.1,4.41 3.04,6.56c0.93,2.09 1.83,4.24 3.16,5.98c0.67,0.93 3.35,1.42 4.55,1.92c0.9,0.4 2.28,0.76 3.08,1.25c1.52,0.93 3.04,2 4.46,3.03c0.72,0.53 2.95,1.65 3.08,2.54l0.01,-0.02zm-45.5,-38.78a7.09,7.09 0 0 0 -1.83,0.23l0,0.1l0.09,0c0.35,0.71 0.98,1.2 1.42,1.83l1.03,2.14l0.09,-0.1c0.62,-0.45 0.94,-1.16 0.94,-2.23c-0.27,-0.31 -0.32,-0.63 -0.54,-0.94c-0.27,-0.44 -0.85,-0.67 -1.2,-1.02l0,-0.01z" fill="#00678c" fill-rule="evenodd" id="svg_4" transform="matrix(.390229 0 0 .38781 -46.300037 -16.856717)"/>
  </symbol>
 </defs>
 <g class="layer">
  <title>Layer 1</title>
  <g id="svg_1" transform="matrix(1 0 0 1 0 0)">
   <rect fill="#2B2D31" height="28" id="svg_2" width="88.25" x="0" y="0"/>
  </g>
  <g fill="#fff" font-family="Verdana,Geneva,DejaVu Sans,sans-serif" font-size="100" id="svg_3" text-anchor="middle">
   <text fill="#fff" font-weight="bold" id="svg_5" textLength="442.5" transform="matrix(0.1 0 0 0.1 0 0)" x="559.38" y="176.24">MYSQL</text>
   <use id="svg_15" transform="matrix(1 0 0 1 0 0) matrix(0.231416 0 0 0.231416 10.2308 7.43578)" x="-0.54" xlink:href="#svg_13" y="-5.4"/>
  </g>
 </g>
</svg>