<?xml version="1.0"?>
<svg width="97.5" height="28" xmlns="http://www.w3.org/2000/svg" xmlns:svg="http://www.w3.org/2000/svg" xmlns:xlink="http://www.w3.org/1999/xlink" aria-label="PANDAS">
 <title>PANDAS</title>
 <defs>
  <symbol height="48px" id="svg_6" viewBox="0 0 48 48" width="48px" xmlns="http://www.w3.org/2000/svg">
   <rect fill="#1a237e" height="10" width="5" x="18" y="4"/>
   <rect fill="#1a237e" height="10" width="5" x="18" y="25"/>
   <rect fill="#fbc02d" height="5" width="5" x="18" y="17"/>
   <rect fill="#1a237e" height="33" width="5" x="10" y="13"/>
   <rect fill="#1a237e" height="10" width="5" x="26" y="33"/>
   <rect fill="#1a237e" height="10" width="5" x="26" y="12"/>
   <rect fill="#ff4081" height="5" width="5" x="26" y="25"/>
   <rect fill="#1a237e" height="33" width="5" x="34" y="2"/>
  </symbol>
 </defs>
 <g class="layer">
  <title>Layer 1</title>
  <g id="svg_1">
   <rect fill="#2b2d31" height="28" id="svg_2" width="97.5"/>
  </g>
  <g fill="#fff" font-family="Verdana,Geneva,DejaVu Sans,sans-serif" font-size="100" id="svg_3" text-anchor="middle">
   <text fill="#fff" font-weight="bold" id="svg_5" textLength="535" transform="matrix(1 0 0 1 0 0) matrix(0.1 0 0 0.1 0 0)" x="587.5" y="175">PANDAS</text>
   <use id="svg_7" transform="matrix(0.48161 0 0 0.48161 15.6214 66.67)" x="-23.38" xlink:href="#svg_6" y="-134.13"/>
  </g>
 </g>
</svg>