<?xml version="1.0"?>
<svg width="130.5" height="28" xmlns="http://www.w3.org/2000/svg" xmlns:svg="http://www.w3.org/2000/svg" xmlns:xlink="http://www.w3.org/1999/xlink" aria-label="POSTGRESQL">
 <title>POSTGRESQL</title>
 <defs>
  <symbol height="48px" id="svg_6" viewBox="0 0 48 48" width="48px" xmlns="http://www.w3.org/2000/svg">
   <path d="m44.08,29.79c-0.18,-0.83 -0.93,-1.8 -2.45,-1.8c-0.31,0 -0.65,0.04 -1.03,0.12c-0.71,0.15 -1.31,0.22 -1.85,0.24c4.14,-7.04 6.82,-16.81 4.16,-20.21c-3.5,-4.47 -8.21,-5.14 -10.71,-5.14l-0.23,0c-0.93,0.02 -1.9,0.13 -2.87,0.34l-3.58,0.77c-0.49,-0.06 -0.98,-0.1 -1.5,-0.11l-0.03,0l-0.02,0l-0.15,0c-1.59,0 -3.05,0.34 -4.34,0.97l-1.25,-0.49c-1.72,-0.68 -4.31,-1.49 -6.87,-1.49c-0.14,0 -0.29,0.01 -0.43,0.01c-2.52,0.09 -4.69,1.05 -6.27,2.77c-1.96,2.15 -2.86,5.28 -2.66,9.33c0.01,0.21 2.46,20.9 9.4,20.9l0.03,0l0.06,0c0.9,-0.02 1.76,-0.38 2.56,-1.08c0.62,0.46 1.41,0.73 2.15,0.84c0.49,0.12 1.36,0.28 2.42,0.28c1.28,0 2.44,-0.26 3.44,-0.74c-0.01,0.88 -0.01,2 -0.02,3.42l0,0.08l0,0.07c0.1,1.42 0.35,2.7 0.71,3.7c1.05,2.86 2.87,4.44 5.12,4.44c0.09,0 0.18,-0.01 0.28,-0.01c1.85,-0.12 3.72,-1.15 5,-2.78c1.4,-1.75 1.72,-3.6 1.84,-5.02l0.01,-0.09l0,-0.09l0,-4.08l0.1,0.01l0.44,0.04l0.04,0.01l0.04,0c0.13,0 0.26,0.01 0.38,0.01c1.51,0 3.37,-0.4 4.62,-0.98c1.2,-0.55 3.94,-2.08 3.46,-4.24z" fill="#fff"/>
   <path d="m33,34c0,-0.2 0.01,-0.38 0.02,-0.56c-0.01,-0.26 -0.02,-0.44 -0.02,-0.44s0.01,-0.01 0.03,-0.02c0.15,-2.68 0.89,-3.7 1.68,-4.29c-0.11,-0.15 -0.24,-0.32 -0.36,-0.48c-0.33,-0.43 -0.75,-0.98 -1.19,-1.67l-0.08,-0.16c-0.07,-0.16 -0.23,-0.45 -0.44,-0.82c-1.18,-2.14 -3.64,-6.59 -1.96,-9.4c0.74,-1.23 2.12,-1.94 4.12,-2.12c-0.81,-2.32 -3.87,-7.92 -10.82,-8.04c0,0 0,0 0,0c-6.04,-0.1 -8.03,5.39 -8.67,8.67c0.89,-0.38 1.9,-0.6 2.83,-0.6c0.02,0 0.03,0 0.05,0c2.29,0.01 3.86,1.24 4.32,3.35c0.33,1.55 0.49,2.91 0.49,4.15c-0.01,2.72 -0.56,4.15 -1.04,5.41l-0.16,0.41c-0.12,0.34 -0.25,0.65 -0.37,0.94c-0.13,0.3 -0.24,0.56 -0.32,0.8c0.48,0.11 0.86,0.27 1.12,0.38l0.15,0.07c0.05,0.02 0.1,0.04 0.14,0.07c0.85,0.51 1.38,1.31 1.49,2.23c0.06,0.5 0.05,3.89 0.03,6.85c0.09,1.29 0.3,2.37 0.59,3.15c0.41,1.11 1.43,3.24 3.4,3.12c1.37,-0.09 2.68,-0.92 3.56,-2.02c0.94,-1.18 1.28,-2.49 1.41,-3.96l0,-5.02z" fill="#0277bd"/>
   <path d="m15.11,28.92c-1.61,-1.69 -2.4,-3.95 -2.1,-6.06c0.29,-2.03 0.12,-4.03 0.04,-5.1c-0.03,-0.35 -0.05,-0.62 -0.05,-0.77c0,0 0,-0.01 0,-0.02c0,0 0,-0.01 0,-0.01c0.12,-3.02 1.29,-7.79 4.49,-10.62c-1.56,-0.62 -4.1,-1.43 -6.49,-1.34c-3.74,0.14 -7.36,2.72 -7,10c0.14,2.73 3.22,19.1 7.44,19c0.6,-0.02 1.23,-0.4 1.87,-1.18c1.02,-1.22 2.01,-2.33 2.71,-3.1c-0.31,-0.24 -0.62,-0.5 -0.91,-0.8zm21.91,-14.19c0.02,0.15 0.01,0.29 -0.02,0.41c0.03,0.92 -0.07,1.81 -0.17,2.68c-0.07,0.63 -0.15,1.29 -0.17,1.95c-0.02,0.64 0.07,1.28 0.17,1.95c0.22,1.58 0.46,3.36 -0.77,5.44c0.23,0.3 0.43,0.57 0.58,0.84c4.61,-7.48 6.47,-16.36 4.7,-18.63c-2.68,-3.43 -6.4,-4.42 -9.34,-4.37c-0.92,0.01 -1.76,0.14 -2.47,0.29c5.07,2.46 7.33,7.74 7.49,9.44zm3.98,15.34c-2.66,0.55 -3.95,0.26 -4.57,-0.12c-0.1,0.07 -0.2,0.13 -0.29,0.19c-0.37,0.22 -0.96,0.58 -1.11,2.78c0.09,0.01 0.16,0.02 0.25,0.04l0.43,0.04c1.32,0.06 3.05,-0.31 4.07,-0.78c2.18,-1.02 3.37,-2.59 1.22,-2.15zm-18.98,2.05c-0.03,-0.3 -0.2,-0.54 -0.49,-0.73l-0.11,-0.05c-0.36,-0.16 -0.77,-0.34 -1.42,-0.34l0,0c-0.13,0.01 -0.26,0.02 -0.38,0.02c-0.06,0 -0.11,-0.01 -0.16,-0.01c-0.47,0.36 -1.15,0.65 -2.82,0.99c-2.98,0.76 -1.22,1.65 -0.07,1.79c1.1,0.28 3.73,0.62 5.48,-0.81c-0.01,-0.44 -0.01,-0.75 -0.03,-0.86z" fill="#0277bd"/>
   <path d="m20.68,18.5c-0.29,0.3 -0.75,0.57 -1.26,0.49c-0.83,-0.14 -1.46,-1.14 -1.42,-1.51l0,0c0.05,-0.38 0.75,-0.57 1.58,-0.44c0.29,0.05 0.55,0.13 0.77,0.23c-0.32,-0.69 -0.9,-1.08 -1.78,-1.18c-1.57,-0.18 -3.23,0.64 -3.56,1.1c0,0.11 0.02,0.25 0.03,0.41c0.09,1.15 0.26,3.29 -0.05,5.54c-0.21,1.48 0.39,3.17 1.57,4.39c0.75,0.79 1.64,1.29 2.51,1.44c0.11,-0.48 0.31,-0.94 0.51,-1.42c0.11,-0.27 0.23,-0.55 0.35,-0.85l0.16,-0.43c0.44,-1.16 0.9,-2.35 0.91,-4.7c0,-0.91 -0.11,-1.94 -0.32,-3.07zm14.17,3.51c-0.11,-0.73 -0.21,-1.49 -0.19,-2.31c0.03,-0.74 0.11,-1.44 0.19,-2.11c0.06,-0.54 0.11,-1.05 0.13,-1.55c-1.29,0.1 -2.14,0.47 -2.55,1.1c0.17,-0.05 0.36,-0.1 0.57,-0.13c0.89,-0.11 1.54,0.15 1.62,0.64c0.05,0.36 -0.25,0.71 -0.39,0.84c-0.28,0.27 -0.63,0.44 -0.98,0.48c-0.06,0.01 -0.13,0.02 -0.19,0.02c-0.36,0 -0.69,-0.12 -0.95,-0.3c0.11,1.97 1.57,4.61 2.28,5.9c0.15,0.28 0.27,0.5 0.37,0.69c0.39,-1.12 0.25,-2.14 0.09,-3.27z" fill="#0277bd"/>
  </symbol>
 </defs>
 <g class="layer">
  <title>Layer 1</title>
  <g id="svg_1">
   <rect fill="#2b2d31" height="28" id="svg_2" width="130.5"/>
  </g>
  <g fill="#fff" font-family="Verdana,Geneva,DejaVu Sans,sans-serif" font-size="100" id="svg_3" text-anchor="middle">
   <text fill="#fff" font-weight="bold" id="svg_5" textLength="865" transform="matrix(1 0 0 1 0 0) scale(0.1 0.1)" x="752.5" y="175">POSTGRESQL</text>
   <use id="svg_7" transform="matrix(0.337878 0 0 0.337878 11.0593 28.287)" x="-8.14" xlink:href="#svg_6" y="-67.82"/>
  </g>
 </g>
</svg>