<?xml version="1.0"?>
<svg width="132.5" height="28" xmlns="http://www.w3.org/2000/svg" xmlns:svg="http://www.w3.org/2000/svg" xmlns:xlink="http://www.w3.org/1999/xlink" aria-label="POWERSHELL">
 <title>POWERSHELL</title>
 <defs>
  <symbol height="48px" id="svg_7" viewBox="0 0 48 48" width="48px" xmlns="http://www.w3.org/2000/svg">
   <linearGradient id="svg_6" x1="0.48" x2="0.52" y1="0" y2="0.96">
    <stop offset="0" stop-color="#008ded"/>
    <stop offset="1" stop-color="#0061a7"/>
   </linearGradient>
   <path d="m19.85,41.96c-5.63,-0.01 -11.26,0.02 -16.89,-0.02c-2.86,-0.02 -3.38,-0.7 -2.73,-3.52c2.18,-9.58 4.42,-19.14 6.56,-28.74c0.57,-2.57 1.8,-3.71 4.52,-3.68c11.26,0.11 22.52,0.03 33.78,0.05c2.82,0 3.3,0.61 2.66,3.51c-2.06,9.4 -4.13,18.81 -6.23,28.2c-0.79,3.52 -1.7,4.19 -5.36,4.19c-5.44,0.02 -10.87,0.01 -16.31,0.01z" fill="url(#svg_6)" id="svg_4"/>
   <path d="m25.06,23.92c-0.61,-0.69 -1.12,-1.26 -1.53,-1.73c-2.43,-2.73 -4.66,-5.27 -7.07,-7.87c-1.1,-1.19 -1.45,-2.34 -0.13,-3.52c1.31,-1.16 2.6,-1.05 3.79,0.28c3.34,3.72 6.68,7.44 10.08,11.1c1.26,1.37 0.97,2.3 -0.43,3.32c-5.36,3.89 -10.69,7.83 -16.01,11.78c-1.2,0.88 -2.34,1.11 -3.3,-0.2c-1.07,-1.45 -0.08,-2.31 1.02,-3.12c3.96,-2.89 7.91,-5.8 11.84,-8.72c0.54,-0.41 1.27,-0.97 1.74,-1.32zm-3.31,13.08c-1.12,0 -1.75,-1 -1.75,-2s0.63,-2 1.75,-2c4.22,0 6.11,0 9.5,0c1.13,0 1.75,1 1.75,2s-0.62,2 -1.75,2c-2.12,0 -6.25,0 -9.5,0z" fill="none" id="svg_8" opacity="0.05" stroke="#1d1d1b" stroke-width="2"/>
   <path d="m25.06,23.92c-0.61,-0.69 -1.12,-1.26 -1.53,-1.73c-2.43,-2.73 -4.66,-5.27 -7.07,-7.87c-1.1,-1.19 -1.45,-2.34 -0.13,-3.52c1.31,-1.16 2.6,-1.05 3.79,0.28c3.34,3.72 6.68,7.44 10.08,11.1c1.26,1.37 0.97,2.3 -0.43,3.32c-5.36,3.89 -10.69,7.83 -16.01,11.78c-1.2,0.88 -2.34,1.11 -3.3,-0.2c-1.07,-1.45 -0.08,-2.31 1.02,-3.12c3.96,-2.89 7.91,-5.8 11.84,-8.72c0.54,-0.41 1.27,-0.97 1.74,-1.32zm-3.31,13.08c-1.12,0 -1.75,-1 -1.75,-2s0.63,-2 1.75,-2c4.22,0 6.11,0 9.5,0c1.13,0 1.75,1 1.75,2s-0.62,2 -1.75,2c-2.12,0 -6.25,0 -9.5,0z" fill="none" id="svg_10" opacity="0.07" stroke="#000"/>
   <path d="m25.06,23.92c-0.61,-0.69 -1.12,-1.26 -1.53,-1.73c-2.43,-2.73 -4.66,-5.27 -7.07,-7.87c-1.1,-1.19 -1.45,-2.34 -0.13,-3.52c1.31,-1.16 2.6,-1.05 3.79,0.28c3.34,3.72 6.68,7.44 10.08,11.1c1.26,1.37 0.97,2.3 -0.43,3.32c-5.36,3.89 -10.69,7.83 -16.01,11.78c-1.2,0.88 -2.34,1.11 -3.3,-0.2c-1.07,-1.45 -0.08,-2.31 1.02,-3.12c3.96,-2.89 7.91,-5.8 11.84,-8.72c0.54,-0.41 1.27,-0.97 1.74,-1.32zm-3.31,13.08c-1.12,0 -1.75,-1 -1.75,-2s0.63,-2 1.75,-2c4.22,0 6.11,0 9.5,0c1.13,0 1.75,1 1.75,2s-0.62,2 -1.75,2c-2.12,0 -6.25,0 -9.5,0z" fill="#fafafa" id="svg_11"/>
  </symbol>
 </defs>
 <g class="layer">
  <title>Layer 1</title>
  <g id="svg_1">
   <rect fill="#F6F8FA" height="28" id="svg_2" width="132.5"/>
  </g>
  <g fill="#fff" font-family="Verdana,Geneva,DejaVu Sans,sans-serif" font-size="100" id="svg_3" text-anchor="middle">
   <text fill="#333" font-weight="bold" id="svg_5" textLength="885" transform="scale(.1)" x="762.5" y="175">POWERSHELL</text>
   <use id="svg_9" transform="matrix(0.383414 0 0 0.383414 44.7802 53.0176)" x="-93.64" xlink:href="#svg_7" y="-126.16"/>
  </g>
 </g>
</svg>