<?xml version="1.0"?>
<svg width="97.5" height="28" xmlns="http://www.w3.org/2000/svg" xmlns:svg="http://www.w3.org/2000/svg" xmlns:xlink="http://www.w3.org/1999/xlink" aria-label="PYTHON">
 <title>PYTHON</title>
 <defs>
  <symbol height="48px" id="svg_6" viewBox="0 0 48 48" width="48px" xmlns="http://www.w3.org/2000/svg">
   <path d="m24.05,5c-1.56,0 -2.64,0.14 -3.94,0.37c-3.85,0.67 -4.55,2.07 -4.55,4.67l0,3.96l9,0l0,2l-9.34,0l-4.35,0c-2.64,0 -4.94,1.24 -5.67,4.22c-0.83,3.42 -0.87,5.56 0,9.12c0.65,2.67 2.09,4.66 4.73,4.66l3.63,0l0,-5.1c0,-2.97 2.69,-5.9 5.77,-5.9l7.23,0c2.53,0 5,-1.86 5,-4.38l0,-8.58c0,-2.44 -1.76,-4.27 -4.21,-4.67c0.06,-0.01 -1.76,-0.38 -3.3,-0.37zm-4.99,4c0.82,0 1.5,0.68 1.5,1.5c0,0.84 -0.68,1.5 -1.5,1.5c-0.83,0 -1.5,-0.66 -1.5,-1.5c0,-0.82 0.67,-1.5 1.5,-1.5z" fill="#0277BD"/>
   <path d="m23.08,43c1.55,-0.01 2.63,-0.14 3.93,-0.37c3.85,-0.67 4.55,-2.07 4.55,-4.67l0,-3.96l-9,0l0,-2l9.35,0l4.35,0c2.63,0 4.94,-1.24 5.67,-4.22c0.83,-3.42 0.86,-5.56 0,-9.12c-0.66,-2.67 -2.1,-4.66 -4.74,-4.66l-3.63,0l0,5.1c0,2.97 -2.68,5.9 -5.76,5.9l-7.24,0c-2.52,0 -5,1.86 -5,4.38l0,8.58c0,2.44 1.76,4.27 4.22,4.67c-0.06,0.01 1.76,0.38 3.3,0.37zm4.98,-4c-0.82,0 -1.5,-0.68 -1.5,-1.5c0,-0.84 0.68,-1.5 1.5,-1.5c0.84,0 1.5,0.66 1.5,1.5c0,0.82 -0.66,1.5 -1.5,1.5z" fill="#FFC107"/>
  </symbol>
 </defs>
 <g class="layer">
  <title>Layer 1</title>
  <g id="svg_1">
   <rect fill="#2b2d31" height="28" id="svg_2" width="97.5"/>
  </g>
  <g fill="#fff" font-family="Verdana,Geneva,DejaVu Sans,sans-serif" font-size="100" id="svg_3" text-anchor="middle">
   <text fill="#fff" font-weight="bold" id="svg_5" textLength="535" transform="scale(.1)" x="587.5" y="175">PYTHON</text>
   <use id="svg_7" transform="matrix(0.371863 0 0 0.371863 45.7653 60.5496)" x="-103.79" xlink:href="#svg_6" y="-149.07"/>
  </g>
 </g>
</svg>