<?xml version="1.0"?>
<svg width="114" height="28" xmlns="http://www.w3.org/2000/svg" xmlns:svg="http://www.w3.org/2000/svg" xmlns:xlink="http://www.w3.org/1999/xlink" aria-label="TELEGRAM">
 <title>TELEGRAM</title>
 <defs>
  <symbol height="48px" id="svg_8" viewBox="0 0 48 48" width="48px" xmlns="http://www.w3.org/2000/svg">
   <path d="m24,4a20,20 0 1 0 0,40a20,20 0 1 0 0,-40z" fill="#29b6f6"/>
   <path d="m33.95,15l-3.75,19.13c0,0 -0.16,0.87 -1.24,0.87c-0.58,0 -0.87,-0.27 -0.87,-0.27l-8.12,-6.74l-3.97,-2l-5.09,-1.35c0,0 -0.91,-0.26 -0.91,-1.01c0,-0.63 0.93,-0.93 0.93,-0.93l21.32,-8.47c0,0 0.65,-0.23 1.13,-0.23c0.29,0 0.62,0.13 0.62,0.5c0,0.25 -0.05,0.5 -0.05,0.5z" fill="#fff"/>
   <path d="m23,30.5l-3.43,3.38c0,0 -0.15,0.11 -0.34,0.12c-0.07,0 -0.15,-0.01 -0.22,-0.04l0.96,-5.97l3.03,2.51z" fill="#b0bec5"/>
   <path d="m29.9,18.2c-0.17,-0.22 -0.48,-0.26 -0.7,-0.1l-13.2,7.9c0,0 2.11,5.89 2.43,6.91c0.32,1.02 0.58,1.05 0.58,1.05l0.96,-5.97l9.83,-9.09c0.22,-0.17 0.26,-0.48 0.1,-0.7z" fill="#cfd8dc"/>
  </symbol>
 </defs>
 <g class="layer">
  <title>Layer 1</title>
  <g id="svg_1">
   <rect fill="#2b2d31" height="28" id="svg_2" width="114"/>
  </g>
  <g fill="#fff" font-family="Verdana,Geneva,DejaVu Sans,sans-serif" font-size="100" id="svg_3" text-anchor="middle">
   <text fill="#fff" font-weight="bold" id="svg_5" textLength="700" transform="scale(.1)" x="670" y="175">TELEGRAM</text>
   <use id="svg_9" transform="matrix(0.356414 0 0 0.356414 -7.48937 13.3266)" x="41.67" xlink:href="#svg_8" y="-21.64"/>
  </g>
 </g>
</svg>